HIERARCHY
ROOT hip
{
  OFFSET 37.8121 88.0139 -37.2358
  CHANNELS 6 Xposition Yposition Zposition Zrotation Xrotation Yrotation
  JOINT abdomen
  {
    OFFSET 0 20.6881 -0.73152
    CHANNELS 3 Zrotation Xrotation Yrotation
    JOINT chest
    {
      OFFSET 0 11.7043 -0.48768
      CHANNELS 3 Zrotation Xrotation Yrotation
      JOINT neck
      {
        OFFSET 0 22.1894 -2.19456
        CHANNELS 3 Zrotation Xrotation Yrotation
        JOINT head
        {
          OFFSET -0.24384 7.07133 1.2192
          CHANNELS 3 Zrotation Xrotation Yrotation
          JOINT leftEye
          {
            OFFSET 4.14528 8.04674 8.04672
            CHANNELS 3 Zrotation Xrotation Yrotation
            End Site
            {
              OFFSET 1 0 0
            }
          }
          JOINT rightEye
          {
            OFFSET -3.6576 8.04674 8.04672
            CHANNELS 3 Zrotation Xrotation Yrotation
            End Site
            {
              OFFSET 1 0 0
            }
          }
        }
      }
      JOINT rCollar
      {
        OFFSET -2.68224 19.2634 -4.8768
        CHANNELS 3 Zrotation Xrotation Yrotation
        JOINT rShldr
        {
          OFFSET -8.77824 -1.95073 1.46304
          CHANNELS 3 Zrotation Xrotation Yrotation
          JOINT rForeArm
          {
            OFFSET -28.1742 -1.7115 0.48768
            CHANNELS 3 Zrotation Xrotation Yrotation
            JOINT rHand
            {
              OFFSET -22.5879 0.773209 7.07136
              CHANNELS 3 Zrotation Xrotation Yrotation
              JOINT rThumb1
              {
                OFFSET -1.2192 -0.487915 3.41376
                CHANNELS 3 Zrotation Xrotation Yrotation
                JOINT rThumb2
                {
                  OFFSET -3.37035 -0.52449 3.41376
                  CHANNELS 3 Zrotation Xrotation Yrotation
                  End Site
                  {
                    OFFSET -1.78271 -1.18214 1.43049
                  }
                }
              }
              JOINT rIndex1
              {
                OFFSET -7.75947 0.938293 5.60832
                CHANNELS 3 Zrotation Xrotation Yrotation
                JOINT rIndex2
                {
                  OFFSET -2.54057 -0.884171 1.56538
                  CHANNELS 3 Zrotation Xrotation Yrotation
                  End Site
                  {
                    OFFSET -1.62519 -0.234802 1.16502
                  }
                }
              }
              JOINT rMid1
              {
                OFFSET -8.24714 1.18213 3.41376
                CHANNELS 3 Zrotation Xrotation Yrotation
                JOINT rMid2
                {
                  OFFSET -3.10165 -0.590103 1.0647
                  CHANNELS 3 Zrotation Xrotation Yrotation
                  End Site
                  {
                    OFFSET -2.48547 -0.328903 0.83742
                  }
                }
              }
              JOINT rRing1
              {
                OFFSET -8.82822 0.546677 1.51678
                CHANNELS 3 Zrotation Xrotation Yrotation
                JOINT rRing2
                {
                  OFFSET -2.60934 -0.819778 -0.0198488
                  CHANNELS 3 Zrotation Xrotation Yrotation
                  End Site
                  {
                    OFFSET -2.33842 -0.294052 0.168128
                  }
                }
              }
              JOINT rPinky1
              {
                OFFSET -8.27202 -0.0477905 -0.4584
                CHANNELS 3 Zrotation Xrotation Yrotation
                JOINT rPinky2
                {
                  OFFSET -1.82734 -0.647385 -0.700984
                  CHANNELS 3 Zrotation Xrotation Yrotation
                  End Site
                  {
                    OFFSET -1.69225 -0.51767 -0.607171
                  }
                }
              }
            }
          }
        }
      }
      JOINT lCollar
      {
        OFFSET 2.68224 19.2634 -4.8768
        CHANNELS 3 Zrotation Xrotation Yrotation
        JOINT lShldr
        {
          OFFSET 8.77824 -1.95073 1.46304
          CHANNELS 3 Zrotation Xrotation Yrotation
          JOINT lForeArm
          {
            OFFSET 28.1742 -1.7115 0.48768
            CHANNELS 3 Zrotation Xrotation Yrotation
            JOINT lHand
            {
              OFFSET 22.5879 0.773209 7.07136
              CHANNELS 3 Zrotation Xrotation Yrotation
              JOINT lThumb1
              {
                OFFSET 1.2192 -0.487915 3.41376
                CHANNELS 3 Zrotation Xrotation Yrotation
                JOINT lThumb2
                {
                  OFFSET 3.37035 -0.52449 3.41376
                  CHANNELS 3 Zrotation Xrotation Yrotation
                  End Site
                  {
                    OFFSET 1.78271 -1.18214 1.43049
                  }
                }
              }
              JOINT lIndex1
              {
                OFFSET 7.75947 0.938293 5.60832
                CHANNELS 3 Zrotation Xrotation Yrotation
                JOINT lIndex2
                {
                  OFFSET 2.54057 -0.884171 1.56538
                  CHANNELS 3 Zrotation Xrotation Yrotation
                  End Site
                  {
                    OFFSET 1.62519 -0.234802 1.16502
                  }
                }
              }
              JOINT lMid1
              {
                OFFSET 8.24714 1.18213 3.41376
                CHANNELS 3 Zrotation Xrotation Yrotation
                JOINT lMid2
                {
                  OFFSET 3.10165 -0.590103 1.0647
                  CHANNELS 3 Zrotation Xrotation Yrotation
                  End Site
                  {
                    OFFSET 2.48547 -0.328903 0.83742
                  }
                }
              }
              JOINT lRing1
              {
                OFFSET 8.82822 0.546677 1.51678
                CHANNELS 3 Zrotation Xrotation Yrotation
                JOINT lRing2
                {
                  OFFSET 2.60934 -0.819778 -0.0198488
                  CHANNELS 3 Zrotation Xrotation Yrotation
                  End Site
                  {
                    OFFSET 2.33842 -0.294052 0.168128
                  }
                }
              }
              JOINT lPinky1
              {
                OFFSET 8.27202 -0.0477905 -0.4584
                CHANNELS 3 Zrotation Xrotation Yrotation
                JOINT lPinky2
                {
                  OFFSET 1.82734 -0.647385 -0.700984
                  CHANNELS 3 Zrotation Xrotation Yrotation
                  End Site
                  {
                    OFFSET 1.69225 -0.51767 -0.607171
                  }
                }
              }
            }
          }
        }
      }
    }
  }
  JOINT rButtock
  {
    OFFSET -8.77824 4.35084 1.2192
    CHANNELS 3 Zrotation Xrotation Yrotation
    JOINT rThigh
    {
      OFFSET 0 -1.70687 -2.19456
      CHANNELS 3 Zrotation Xrotation Yrotation
      JOINT rShin
      {
        OFFSET 0 -36.8199 0.73152
        CHANNELS 3 Zrotation Xrotation Yrotation
        JOINT rFoot
        {
          OFFSET 0.73152 -45.1104 -5.12064
          CHANNELS 3 Zrotation Xrotation Yrotation
          End Site
          {
            OFFSET -1.1221 -3.69964 12.103
          }
        }
      }
    }
  }
  JOINT lButtock
  {
    OFFSET 8.77824 4.35084 1.2192
    CHANNELS 3 Zrotation Xrotation Yrotation
    JOINT lThigh
    {
      OFFSET 0 -1.70687 -2.19456
      CHANNELS 3 Zrotation Xrotation Yrotation
      JOINT lShin
      {
        OFFSET 0 -36.8199 0.73152
        CHANNELS 3 Zrotation Xrotation Yrotation
        JOINT lFoot
        {
          OFFSET -0.73152 -45.1104 -5.12064
          CHANNELS 3 Zrotation Xrotation Yrotation
          End Site
          {
            OFFSET 1.1221 -3.69964 12.103
          }
        }
      }
    }
  }
}
MOTION
Frames:	4
Frame Time:	0.00833333
-82.9207 80.2731 -52.7341 -1.84098 0.00760523 0.0350603 2.42165 -0.000250632 0.0655291 0.667697 0.0102413 0.115564 -1.7893e-015 0 -2.48481e-016 -5.18704e-015 -6.36111e-015 -6.72451e-016 -0 0 0 -0 0 0 -6.98129e-016 -1.80149e-016 4.96962e-017 -1.66633e-014 -3.96327e-015 -1.39149e-015 -3.16664e-013 -4.01545e-014 -1.59028e-014 -3.35857e-012 -7.48076e-013 -4.38917e-013 -7.95581e-012 -1.70575e-012 -9.63708e-013 -1.37372e-011 -2.94837e-012 -1.65945e-012 -7.95377e-012 -1.70517e-012 -9.60528e-013 7.73091 5.47488 0.417314 -7.95447e-012 -1.70567e-012 -9.60528e-013 2.90554 0.965183 0.102902 -7.94743e-012 -1.70557e-012 -9.59732e-013 10.2786 0.731801 0.0259123 -7.95974e-012 -1.70239e-012 -9.54166e-013 2.22167 -0.733487 -0.20892 -8.92201e-016 -1.80537e-016 -3.47873e-016 -1.91293e-014 -3.99433e-015 -3.18055e-015 -2.77404e-013 -2.18266e-013 -5.725e-014 -3.38418e-012 -5.6917e-013 -3.81667e-013 -7.93236e-012 -1.70515e-012 -9.63708e-013 -1.36851e-011 -2.94201e-012 -1.65389e-012 -7.93509e-012 -1.70557e-012 -9.54166e-013 -7.73091 5.47488 -0.417314 -7.93081e-012 -1.70557e-012 -9.66889e-013 -2.90554 0.965183 -0.102902 -7.93775e-012 -1.70478e-012 -9.61323e-013 -10.2786 0.731801 -0.0259123 -7.92614e-012 -1.70279e-012 -9.7325e-013 -2.22167 -0.733487 0.20892 -2.03217e-016 0 -3.88251e-019 2.31823 -8.13355 -0.241849 0.00614543 9.15851 0.156815 -0.52043 -1.03428 0.0376475 2.03217e-016 0 3.88251e-019 1.36408 -1.92971 -0.00552024 0.00877452 -2.07863 0.0721828 0.474135 3.99892 -0.134723 
-88.127 78.36 -55.8012 -11.0997 2.07052 13.8023 -1.39134 6.90859 0.827845 1.95947 -1.70851 0.154018 -2.34424 -1.45706 0.484554 4.34492 -0.249702 1.90292 -0 0 0 -0 0 0 -4.17456e-013 7.9511e-013 1.86126e-013 -1.60945 -11.4085 -1.19151 -6.54819 -3.65363 9.3843 0.00800934 2.00539 0.281234 2.92732e-010 3.27162e-009 6.93144e-010 5.12021e-010 5.65205e-009 1.20047e-009 2.92735e-010 3.27161e-009 6.93139e-010 7.73091 5.47488 0.417314 2.92732e-010 3.27161e-009 6.93148e-010 2.90554 0.965183 0.102902 2.92736e-010 3.27162e-009 6.93147e-010 10.2786 0.731801 0.0259123 2.92727e-010 3.27162e-009 6.93154e-010 2.22167 -0.733487 -0.20892 -4.17679e-013 7.95103e-013 1.85754e-013 1.63328 -7.604 -6.3176 4.65375 -2.20632 -7.17007 -0.393057 -13.9985 1.76255 5.45008e-010 2.31141e-010 1.24247e-009 8.95728e-010 4.33819e-010 2.15796e-009 5.45004e-010 2.31141e-010 1.24248e-009 -7.73091 5.47488 -0.417314 5.45008e-010 2.3114e-010 1.24247e-009 -2.90554 0.965183 -0.102902 5.45001e-010 2.31142e-010 1.24248e-009 -10.2786 0.731801 -0.0259123 5.45012e-010 2.31144e-010 1.24247e-009 -2.22167 -0.733487 0.20892 -2.03217e-016 0 -3.88251e-019 2.95454 -12.25 0.785808 0.188424 14.1748 0.556999 -0.389199 -2.55771 8.46825 2.03217e-016 0 3.88251e-019 6.98258 -22.2423 6.11145 0.0168191 21.0618 -0.232549 0.458121 7.84276 -1.92745 
-88.536 77.2164 -54.6782 -21.9393 3.76238 28.3538 -5.68084 14.2343 1.68837 3.3066 -3.52556 0.195746 -4.81048 -3.02885 1.01051 8.89069 -0.391812 3.92534 -0 0 0 -0 0 0 -8.84789e-013 1.66773e-012 4.07189e-013 -4.00801 -23.5282 -2.55413 -12.1732 -7.17715 19.408 -0.00516369 4.15782 0.58428 6.83951e-010 6.98375e-009 1.51035e-009 1.19507e-009 1.20644e-008 2.61549e-009 6.83957e-010 6.98374e-009 1.51034e-009 7.73091 5.47488 0.417314 6.83951e-010 6.98374e-009 1.51036e-009 2.90554 0.965183 0.102902 6.83952e-010 6.98375e-009 1.51035e-009 10.2786 0.731801 0.0259123 6.83945e-010 6.98375e-009 1.51036e-009 2.22167 -0.733487 -0.20892 -8.85043e-013 1.66772e-012 4.06844e-013 1.39427 -15.3461 -13.4178 8.9373 -4.391 -14.7259 0.248953 -28.8225 4.02394 1.1983e-009 4.86969e-010 2.61093e-009 1.97378e-009 9.13705e-010 4.53616e-009 1.1983e-009 4.86968e-010 2.61095e-009 -7.73091 5.47488 -0.417314 1.1983e-009 4.86967e-010 2.61093e-009 -2.90554 0.965183 -0.102902 1.19829e-009 4.86971e-010 2.61094e-009 -10.2786 0.731801 -0.0259123 1.1983e-009 4.86971e-010 2.61093e-009 -2.22167 -0.733487 0.20892 -2.03217e-016 0 -3.88251e-019 3.80819 -16.5016 1.98672 0.300889 19.4642 1.0071 0.186287 -3.90289 17.5259 2.03217e-016 0 3.88251e-019 19.2299 -42.8768 16.0743 0.393516 45.7326 -0.75269 0.707428 11.9335 -3.85431 
-89.6911 76.4296 -54.1794 -32.3136 4.78871 41.4858 -9.6017 20.7104 2.49582 4.54996 -5.146 0.231656 -6.9586 -4.36994 1.45743 13.0844 -0.745803 5.70919 -0 0 0 -0 0 0 -1.25097e-012 2.38569e-012 5.58278e-013 -6.50253 -34.1598 -4.23567 -16.1715 -9.78635 28.5478 -0.0353084 6.01558 0.847856 8.94107e-010 9.81826e-009 2.08136e-009 1.56354e-009 1.69621e-008 3.60472e-009 8.94113e-010 9.81824e-009 2.08134e-009 7.73091 5.47488 0.417314 8.94106e-010 9.81825e-009 2.08137e-009 2.90554 0.965183 0.102902 8.94104e-010 9.81827e-009 2.08136e-009 10.2786 0.731801 0.0259123 8.941e-010 9.81827e-009 2.08137e-009 2.22167 -0.733487 -0.20892 -1.25125e-012 2.38567e-012 5.57958e-013 -0.347047 -21.6634 -20.2733 12.3398 -6.20525 -21.6272 2.14722 -41.8082 6.89055 1.65089e-009 6.96834e-010 3.72934e-009 2.71455e-009 1.30734e-009 6.47717e-009 1.65088e-009 6.96834e-010 3.72936e-009 -7.73091 5.47488 -0.417314 1.65089e-009 6.96832e-010 3.72934e-009 -2.90554 0.965183 -0.102902 1.65088e-009 6.96837e-010 3.72935e-009 -10.2786 0.731801 -0.0259123 1.65089e-009 6.96837e-010 3.72935e-009 -2.22167 -0.733487 0.20892 -2.03217e-016 0 -3.88251e-019 4.69757 -20.4609 2.97011 0.32313 24.2026 1.4368 1.17076 -5.14164 25.4135 2.03217e-016 0 3.88251e-019 41.2976 -58.6247 34.1117 1.69194 67.3299 -2.06385 1.17143 15.4713 -5.66539 
